<?xml version="1.0" encoding="UTF-8" standalone="no"?>
<!-- Created with Inkscape (http://www.inkscape.org/) -->

<svg
   xmlns:dc="http://purl.org/dc/elements/1.1/"
   xmlns:cc="http://creativecommons.org/ns#"
   xmlns:rdf="http://www.w3.org/1999/02/22-rdf-syntax-ns#"
   xmlns:svg="http://www.w3.org/2000/svg"
   xmlns="http://www.w3.org/2000/svg"
   xmlns:sodipodi="http://sodipodi.sourceforge.net/DTD/sodipodi-0.dtd"
   xmlns:inkscape="http://www.inkscape.org/namespaces/inkscape"
   id="svg2"
   version="1.1"
   inkscape:version="0.91 r13725"
   width="240"
   height="111"
   viewBox="0 0 240 111"
   sodipodi:docname="tecni-freezer-logo.svg">
  <metadata
     id="metadata8">
    <rdf:RDF>
      <cc:Work
         rdf:about="">
        <dc:format>image/svg+xml</dc:format>
        <dc:type
           rdf:resource="http://purl.org/dc/dcmitype/StillImage" />
        <dc:title></dc:title>
      </cc:Work>
    </rdf:RDF>
  </metadata>
  <defs
     id="defs6" />
  <sodipodi:namedview
     pagecolor="#212121"
     bordercolor="#666666"
     borderopacity="1"
     objecttolerance="10"
     gridtolerance="10"
     guidetolerance="10"
     inkscape:pageopacity="0"
     inkscape:pageshadow="2"
     inkscape:window-width="1440"
     inkscape:window-height="845"
     id="namedview4"
     showgrid="false"
     showborder="true"
     showguides="true"
     inkscape:guide-bbox="true"
     inkscape:zoom="2"
     inkscape:cx="154.89612"
     inkscape:cy="79.235962"
     inkscape:window-x="0"
     inkscape:window-y="27"
     inkscape:window-maximized="1"
     inkscape:current-layer="svg2" />
  <g
     id="g7203"
     transform="matrix(0.93791615,0,0,0.93791615,375.04697,130.00613)">
    <rect
       y="-45.520187"
       x="-350.00253"
       height="19.545309"
       width="195.58832"
       id="rect7069"
       style="opacity:1;fill:#001852;fill-opacity:1;stroke:none;stroke-width:1;stroke-linecap:round;stroke-linejoin:round;stroke-miterlimit:4;stroke-dasharray:none;stroke-opacity:1" />
    <g
       transform="translate(-393,-134.5)"
       id="g7129">
      <ellipse
         style="opacity:1;fill:#e9bfa3;fill-opacity:1;stroke:#000000;stroke-width:1;stroke-linecap:round;stroke-linejoin:round;stroke-miterlimit:4;stroke-dasharray:none;stroke-opacity:1"
         id="path7041"
         cx="32.917938"
         cy="27.943621"
         rx="25.240555"
         ry="28.314932" />
      <path
         style="opacity:1;fill:#005e97;fill-opacity:1;stroke:#ffffff;stroke-width:1;stroke-linecap:round;stroke-linejoin:round;stroke-miterlimit:4;stroke-dasharray:none;stroke-opacity:1"
         d="M 54.925819,14.171475 C 29.09715,16.033211 18.489112,27.206117 7.9763826,33.121027 3.7033854,14.233864 12.899809,8.0317069 18.47183,3.6696888 26.397705,-2.0196049 45.8457,-5.6031113 54.925819,14.171475 Z"
         id="ellipse7043"
         inkscape:connector-curvature="0"
         sodipodi:nodetypes="cccc" />
      <path
         style="fill:#00002b;fill-rule:evenodd;stroke:#000000;stroke-width:1px;stroke-linecap:round;stroke-linejoin:round;stroke-opacity:1"
         d="m 17.924771,26.871078 c 0,0 7.806442,-13.83905 33.288169,-22.1214633 C 76.202975,0.53215285 63.954346,8.333131 63.954346,8.333131 l -8.827687,6.043586 c 0,0 -14.561079,-1.259902 -37.201888,12.494361 z"
         id="path7039"
         inkscape:connector-curvature="0"
         sodipodi:nodetypes="ccccc" />
      <ellipse
         style="opacity:1;fill:#1a1a1a;fill-opacity:1;stroke:none;stroke-width:7.5;stroke-linecap:round;stroke-linejoin:round;stroke-miterlimit:4;stroke-dasharray:none;stroke-opacity:1"
         id="path7050"
         cx="28.749893"
         cy="34.251728"
         rx="1.3814226"
         ry="2.021594"
         transform="matrix(0.96592583,-0.25881905,0.25881905,0.96592583,0,0)" />
      <ellipse
         transform="matrix(0.96592583,-0.25881905,0.25881905,0.96592583,0,0)"
         ry="2.021594"
         rx="1.3814226"
         cy="33.73164"
         cx="41.401455"
         id="ellipse7052"
         style="opacity:1;fill:#1a1a1a;fill-opacity:1;stroke:none;stroke-width:7.5;stroke-linecap:round;stroke-linejoin:round;stroke-miterlimit:4;stroke-dasharray:none;stroke-opacity:1" />
      <path
         style="fill:none;fill-rule:evenodd;stroke:#000000;stroke-width:1px;stroke-linecap:round;stroke-linejoin:round;stroke-opacity:1"
         d="m 47.27003,34.931751 c 0,0 12.952522,-6.8546 0.667656,-5.474778"
         id="path7054"
         inkscape:connector-curvature="0" />
      <path
         style="opacity:1;fill:#000000;fill-rule:evenodd;stroke:none;stroke-width:1px;stroke-linecap:round;stroke-linejoin:round;stroke-opacity:1"
         d="m 36.754779,42.207234 c -3.440469,0.877551 -4.606238,6.549292 -4.217687,7.501965 -2.196355,-0.61097 -5.796037,-3.329846 -6.555409,-5.098948 -0.917014,-2.113509 -0.07245,-5.771326 1.191907,-9.277907 3.264724,3.13924 3.95871,4.675281 9.581189,6.87489 z"
         id="path7058"
         inkscape:connector-curvature="0"
         sodipodi:nodetypes="ccccc" />
      <path
         inkscape:connector-curvature="0"
         style="opacity:1;fill:#501616;fill-rule:evenodd;stroke:none;stroke-width:1px;stroke-linecap:round;stroke-linejoin:round;stroke-opacity:1"
         d="m 27.955078,39.779297 c -0.635386,-0.05168 -1.24219,0.946222 -1.572266,4.275391 0,2.038312 2.598606,3.685961 4.728516,4.511718 0.379538,0.868303 0.664493,0.844123 0.951172,0.324219 0.03796,0.01106 0.08196,0.02872 0.119141,0.03906 -0.01657,-0.04063 -0.03764,-0.128608 -0.05469,-0.175782 0.275273,-0.565287 0.558568,-1.527725 0.943359,-2.640625 1.384224,-6.304246 -1.48845,-4.684968 -2.738281,-2.919922 -0.103303,-0.246778 -0.204867,-0.494973 -0.320312,-0.742187 -0.376467,-0.806166 -1.239715,-2.605423 -2.056641,-2.671875 z"
         id="path7060" />
      <path
         style="fill:none;fill-rule:evenodd;stroke:#000000;stroke-width:1px;stroke-linecap:round;stroke-linejoin:round;stroke-opacity:1"
         d="m 46.643869,43.457664 c -8.758507,1.340574 -17.252733,-4.786739 -19.518103,-8.258193 -2.786009,7.325541 -0.750893,10.146608 -0.750893,10.146608 4.908839,6.112158 11.852509,5.270981 11.852509,5.270981"
         id="path7056"
         inkscape:connector-curvature="0"
         sodipodi:nodetypes="cccc" />
      <path
         inkscape:connector-curvature="0"
         style="opacity:1;fill:#e9bfa3;fill-opacity:1;stroke:#000000;stroke-width:1;stroke-linecap:round;stroke-linejoin:round;stroke-miterlimit:4;stroke-dasharray:none;stroke-opacity:1"
         d="M 5.8378906,28.980469 A 8.5287703,6.0583897 88.024653 0 0 0.06640625,37.697266 8.5287703,6.0583897 88.024653 0 0 6.4042969,46.027344 8.5287703,6.0583897 88.024653 0 0 12.177734,37.310547 8.5287703,6.0583897 88.024653 0 0 5.8378906,28.980469 Z m 4.2187504,5.132812 a 0.50005,0.50005 0 0 1 0.378906,0.806641 C 9.636864,35.946524 8.8018192,36.355015 8.0683594,36.998047 7.3348995,37.641079 6.6036115,38.543265 5.8535156,40.695312 A 0.50005,0.50005 0 0 1 4.9765625,40.822266 C 4.5829233,40.273956 4.0031453,39.722524 3.6894531,38.861328 3.375761,38.000132 3.3953042,36.883364 4.0390625,35.333984 a 0.50005,0.50005 0 0 1 0.3808594,-0.300781 l 5.5390625,-0.912109 a 0.50005,0.50005 0 0 1 0.097657,-0.0078 z"
         id="path7065" />
      <path
         style="opacity:1;fill:#0af6ff;fill-opacity:1;fill-rule:evenodd;stroke:none;stroke-width:1px;stroke-linecap:butt;stroke-linejoin:miter;stroke-opacity:1"
         d="M 13.665737,29.222098 C 11.692477,21.420578 14.599234,14.965414 17.864938,8.6773734 11.970466,14.509036 9.8289816,21.81163 11.530932,30.551298 Z"
         id="path7077"
         inkscape:connector-curvature="0"
         sodipodi:nodetypes="cccc" />
      <path
         style="fill:#005e97;fill-opacity:1;fill-rule:evenodd;stroke:#ffffff;stroke-width:1px;stroke-linecap:round;stroke-linejoin:round;stroke-opacity:1"
         d="m 18.037885,4.0282718 c -0.720137,-4.97580802 2.32039,-5.2538925 5.252444,-2.9253179 -2.596264,1.0641553 -3.215391,1.4073971 -5.252444,2.9253179 z"
         id="path7047"
         inkscape:connector-curvature="0"
         sodipodi:nodetypes="ccc" />
      <path
         style="fill:#e9bfa3;fill-opacity:1;fill-rule:evenodd;stroke:none;stroke-width:1px;stroke-linecap:butt;stroke-linejoin:miter;stroke-opacity:1"
         d="M 13.298386,39.876948 11.09375,40.28125 c -0.359296,-3.314885 1.199814,-5.400992 -1.0625,-7.625 L 12,31.78125 Z"
         id="path7049"
         inkscape:connector-curvature="0"
         sodipodi:nodetypes="ccccc" />
      <text
         xml:space="preserve"
         style="font-style:normal;font-variant:normal;font-weight:bold;font-stretch:normal;font-size:3.15549779px;line-height:125%;font-family:'DejaVu Sans';-inkscape-font-specification:'DejaVu Sans, Bold';text-align:start;letter-spacing:0px;word-spacing:0px;writing-mode:lr-tb;text-anchor:start;fill:#ffffff;fill-opacity:1;stroke:none;stroke-width:1px;stroke-linecap:butt;stroke-linejoin:miter;stroke-opacity:1"
         x="9.8921862"
         y="23.995136"
         id="text7051"
         sodipodi:linespacing="125%"
         transform="matrix(0.88688319,-0.46199372,0.46199372,0.88688319,0,0)"><tspan
           sodipodi:role="line"
           id="tspan7053"
           x="9.8921862"
           y="23.995136">TECNIFREEZER</tspan></text>
      <path
         style="fill:#1e120d;fill-opacity:1;fill-rule:evenodd;stroke:#000000;stroke-width:1px;stroke-linecap:round;stroke-linejoin:round;stroke-opacity:1"
         d="m 40.4375,110.9375 c 2.314526,-6.87731 4.398733,-13.618896 0.25,-16.6875 -5.500213,-2.799105 -7.785616,3.658227 -9.9375,10.5 -1.594533,-6.246502 -2.727155,-12.461511 3.3125,-18.1875 3.686363,-0.330319 7.059314,-0.857972 7.612437,-3.161073 L 51,67.1875 l 13.6875,-25 1.8125,-5.5 c -0.282681,-6.28341 -1.515221,-12.971016 3.5,-17 4.266486,-3.453905 5.195122,-4.286249 7.5625,-5.125 -5.983297,16.707345 -2.962294,17.907283 -0.75,20.5 9.969025,4.146752 9.755621,-7.384203 12.9375,-13.6875 1.189054,5.373384 2.48421,11.023983 0.5,18.625 -5.892525,4.196122 -7.373413,3.284687 -8.625,5.5 l -6.4375,3.5625 -6.375,10.75 -18.125,28.25 c -1.881063,2.264467 -2.348769,6.012959 -1.875,10.75 0.0091,3.68432 -1.741763,6.75649 -4.4375,9.5 z"
         id="path7067"
         inkscape:connector-curvature="0"
         sodipodi:nodetypes="cccccccccccccccccccc" />
      <path
         style="fill:#e9bfa3;fill-opacity:1;fill-rule:evenodd;stroke:#000000;stroke-width:1;stroke-linecap:round;stroke-linejoin:round;stroke-miterlimit:4;stroke-dasharray:none;stroke-opacity:1"
         d="m 60.84375,60.03125 8.875,2.28125 c 3.243256,3.704541 0.489737,5.335431 -2.4375,6.90625 1.221283,4.191236 -0.302422,7.857709 -4.90625,7.8125 -0.9371,3.447936 -1.779342,5.371363 -7.53125,4.0625 -1.732835,-0.866483 -3.296743,-1.863501 -3.75,-3.71875 1.447006,-1.986013 2.513485,-3.986661 2.4375,-6.03125 z"
         id="path7057"
         inkscape:connector-curvature="0"
         sodipodi:nodetypes="cccccccc" />
      <path
         style="fill:#e9bfa3;fill-opacity:1;fill-rule:evenodd;stroke:#000000;stroke-width:1;stroke-linecap:round;stroke-linejoin:round;stroke-miterlimit:4;stroke-dasharray:none;stroke-opacity:1"
         d="m 56.390625,55.296875 c -0.857829,-0.157846 -1.255905,-0.211356 -4.9375,-0.125 -1.85594,1.23914 -3.323893,3.672933 -3.765625,5.265625 l 7.375,10.3125 c 2.853247,0.596414 5.474799,0.608552 6.4375,-3.5625 -1.088757,-5.016745 -3.25687,-8.183164 -5.109375,-11.890625 z"
         id="path7055"
         inkscape:connector-curvature="0"
         sodipodi:nodetypes="cccccc" />
    </g>
    <text
       sodipodi:linespacing="125%"
       id="text7059"
       y="-83.859055"
       x="-273.56421"
       style="font-style:normal;font-weight:normal;font-size:57.6309166px;line-height:125%;font-family:sans-serif;letter-spacing:-1.54963124px;word-spacing:0px;fill:#001852;fill-opacity:1;stroke:none;stroke-width:1px;stroke-linecap:butt;stroke-linejoin:miter;stroke-opacity:1"
       xml:space="preserve"><tspan
         style="font-style:normal;font-variant:normal;font-weight:normal;font-stretch:normal;font-family:Tabasco;-inkscape-font-specification:Tabasco;fill:#001852;fill-opacity:1"
         y="-83.859055"
         x="-273.56421"
         id="tspan7061"
         sodipodi:role="line">tecni</tspan></text>
    <text
       sodipodi:linespacing="125%"
       id="text7063"
       y="-50.825546"
       x="-321.12909"
       style="font-style:normal;font-weight:normal;font-size:54.74108505px;line-height:125%;font-family:sans-serif;letter-spacing:-1.47192705px;word-spacing:0px;fill:#005e97;fill-opacity:1;stroke:none;stroke-width:1px;stroke-linecap:butt;stroke-linejoin:miter;stroke-opacity:1"
       xml:space="preserve"><tspan
         style="font-style:normal;font-variant:normal;font-weight:normal;font-stretch:normal;font-family:Tabasco;-inkscape-font-specification:Tabasco;fill:#005e97;fill-opacity:1"
         y="-50.825546"
         x="-321.12909"
         id="tspan7065"
         sodipodi:role="line">freezer</tspan></text>
    <text
       sodipodi:linespacing="125%"
       id="text7071"
       y="-28.604967"
       x="-318.9108"
       style="font-style:normal;font-variant:normal;font-weight:300;font-stretch:normal;font-size:20.16249847px;line-height:125%;font-family:Lato;-inkscape-font-specification:'Lato, Light';text-align:start;letter-spacing:0px;word-spacing:0px;writing-mode:lr-tb;text-anchor:start;opacity:0.719;fill:#ffffff;fill-opacity:1;stroke:none;stroke-width:1px;stroke-linecap:butt;stroke-linejoin:miter;stroke-opacity:1"
       xml:space="preserve"><tspan
         style="font-style:normal;font-variant:normal;font-weight:300;font-stretch:normal;font-size:20.16249847px;line-height:125%;font-family:Lato;-inkscape-font-specification:'Lato, Light';text-align:start;letter-spacing:0px;writing-mode:lr-tb;text-anchor:start;fill:#ffffff"
         y="-28.604967"
         x="-318.9108"
         id="tspan7073"
         sodipodi:role="line">técnicos en frio</tspan></text>
  </g>
</svg>
